Coordinates
version=1
nRows=22
nColumns=24
inDegrees=yes

Units are S.I. units (second, meters, Newtons, ...)
Angles are in degrees.

endheader
time	torso_tilt	torso_list	torso_rotation	torso_tx	torso_ty	torso_tz	lumbar_extension	lumbar_bending	lumbar_rotation	hip_flexion_r	hip_adduction_r	hip_rotation_r	knee_angle_r	ankle_angle_r	subtalar_angle_r	mtp_angle_r	hip_flexion_l	hip_adduction_l	hip_rotation_l	knee_angle_l	ankle_angle_l	subtalar_angle_l	mtp_angle_l
      0.00000000	    -11.53568099	      0.70760189	     -0.89500935	      0.01506955	      0.99736987	      0.01687992	     12.87628449	     -4.90761654	     -2.06264725	    -12.50352867	      8.28081435	      0.80923600	     -9.34244295	     10.48221712	      1.82200706	      0.00000000	     23.29764202	     -4.65872128	     -2.07901283	     -9.38845594	      1.91832759	     -2.85854292	      0.00000000
      0.01000000	    -11.51954629	      0.80369875	     -0.84277255	      0.01530879	      0.99580635	      0.01564036	     12.61209799	     -5.18943955	     -2.06437674	    -12.80004104	      8.34857073	      0.79271897	     -9.60875142	     10.66464802	      1.90271081	      0.00000000	     23.06005828	     -4.70685893	     -1.87674853	     -7.26148276	      2.61572328	     -2.78275560	      0.00000000
      0.02000000	    -11.48848984	      0.89776144	     -0.83771592	      0.01567424	      0.99440059	      0.01438996	     12.48321236	     -5.37952256	     -2.04638896	    -13.21966184	      8.30612520	      0.72271273	     -9.98658874	     10.76292184	      2.23157526	      0.00000000	     22.73528107	     -4.64160860	     -1.86883791	     -5.76507689	      3.20179838	     -2.00431775	      0.00000000
      0.03000000	    -11.44477764	      0.98113351	     -0.83873550	      0.01616420	      0.99282009	      0.01315119	     12.43097138	     -5.53911285	     -2.07262378	    -13.70551146	      8.24295826	      0.74209261	    -10.47268732	     10.83690426	      2.34922803	      0.00000000	     22.35430166	     -4.56554270	     -2.27343488	     -4.85795086	      3.74936185	     -0.67315844	      0.00000000
      0.04000000	    -11.38148536	      1.06129194	     -0.83300009	      0.01675521	      0.99112692	      0.01193381	     12.38892747	     -5.66105373	     -2.08399260	    -14.18289015	      8.14237143	      0.76598468	    -11.03471482	     10.90825541	      2.44462968	      0.00000000	     22.09296750	     -4.43484128	     -2.74828234	     -4.81086614	      4.51988533	      0.01630777	      0.00000000
      0.05000000	    -11.29578805	      1.13303296	     -0.84702813	      0.01758134	      0.98978830	      0.01073025	     12.26984174	     -5.61127529	     -2.07445476	    -14.51882872	      7.85476514	      0.63544135	    -11.74045844	     10.90888382	      2.59773147	      0.00000000	     21.97198457	     -4.14611483	     -2.91268413	     -5.43864586	      3.97068770	      0.26917819	      0.00000000
      0.06000000	    -11.18303729	      1.21386004	     -0.87104258	      0.01856239	      0.98835855	      0.00938385	     12.18789471	     -5.52853494	     -2.08926219	    -14.85375719	      7.48823006	      0.38477587	    -12.61346565	     10.96999011	      2.95261785	      0.00000000	     21.81457853	     -3.80971858	     -2.90649065	     -6.43247874	      3.04670029	      0.22248165	      0.00000000
      0.07000000	    -11.05676999	      1.28591705	     -0.90316223	      0.01975458	      0.98699444	      0.00807390	     12.11556760	     -5.36241823	     -2.04108215	    -15.15600057	      7.04002160	      0.00633538	    -13.58519440	     10.91525899	      3.29495680	      0.00000000	     21.60852284	     -3.34410901	     -2.86807895	     -7.36918990	      2.57551303	      0.35945494	      0.00000000
      0.08000000	    -10.90908508	      1.35498283	     -0.92534299	      0.02108450	      0.98579648	      0.00676327	     12.03748288	     -5.09508280	     -1.98782707	    -15.38252387	      6.46354816	     -0.46892446	    -14.72832977	     10.80778894	      3.74551781	      0.00000000	     21.31974163	     -2.74501327	     -2.75923811	     -8.16143426	      1.81108789	     -0.07936973	      0.00000000
      0.09000000	    -10.71834185	      1.39652571	     -0.95651779	      0.02272924	      0.98490402	      0.00555812	     11.86921264	     -4.77811732	     -1.91655760	    -15.48865817	      5.87533277	     -0.98100453	    -16.01731645	     10.43597172	      4.03235139	      0.00000000	     21.10406791	     -2.12484671	     -2.63172256	     -8.95218419	      0.39804316	     -0.92554508	      0.00000000
      0.10000000	    -10.52304933	      1.39876157	     -1.01457871	      0.02446381	      0.98405469	      0.00460747	     11.70494613	     -4.41012546	     -1.72461499	    -15.52292529	      5.31174461	     -1.51658548	    -17.45099307	      9.93120141	      4.26984982	      0.00000000	     20.88324317	     -1.49424919	     -2.40066600	     -9.69973247	     -1.20095821	     -1.84075081	      0.00000000
      0.11000000	    -10.35418889	      1.38866331	     -1.09339056	      0.02607057	      0.98326186	      0.00374161	     11.56167115	     -4.08528485	     -1.45087388	    -15.40521709	      4.84942463	     -2.16741453	    -19.15386922	      9.09077123	      4.30456956	      0.00000000	     20.71058397	     -0.94293679	     -2.11703042	    -10.52349293	     -2.65227425	     -2.68156130	      0.00000000
      0.12000000	    -10.17306671	      1.36714875	     -1.17692226	      0.02779352	      0.98281680	      0.00292491	     11.36492364	     -3.77191053	     -1.12327494	    -15.12041526	      4.43700344	     -2.88475002	    -21.08447588	      8.05929149	      4.06121864	      0.00000000	     20.60696628	     -0.41775472	     -1.82491521	    -11.44069276	     -3.67703026	     -3.35305574	      0.00000000
      0.13000000	    -10.00597314	      1.35678448	     -1.26017834	      0.02939524	      0.98266575	      0.00206056	     11.22556444	     -3.40110334	     -0.73879264	    -14.69743720	      3.92420618	     -3.79423924	    -23.25546262	      6.68240863	      3.71014762	      0.00000000	     20.49588169	      0.20542759	     -1.44476628	    -12.56493909	     -3.75862907	     -3.66540005	      0.00000000
      0.14000000	     -9.86862443	      1.32415663	     -1.36791321	      0.03082670	      0.98282520	      0.00134776	     11.12716151	     -2.89022923	     -0.22816055	    -14.15404689	      3.27783663	     -4.69188976	    -25.60794252	      5.10353314	      3.50667270	      0.00000000	     20.47999122	      0.97980107	     -1.10569567	    -14.01431639	     -3.01379733	     -3.73955428	      0.00000000
      0.15000000	     -9.75453352	      1.28667853	     -1.44604770	      0.03207943	      0.98331883	      0.00069153	     11.14234184	     -2.25659639	      0.23263933	    -13.55907754	      2.42412203	     -5.46271825	    -28.19398074	      3.35357746	      3.61500981	      0.00000000	     20.30750915	      1.87366972	     -0.76141182	    -15.45464259	     -2.11312058	     -3.78654531	      0.00000000
      0.16000000	     -9.62719035	      1.23135201	     -1.53289621	      0.03343289	      0.98423144	      0.00022565	     11.21227206	     -1.52670034	      0.65907226	    -12.91423075	      1.45057506	     -6.21759316	    -30.98114374	      1.50907054	      3.70397428	      0.00000000	     19.89519881	      2.82615315	     -0.26122123	    -16.69135995	     -1.28014050	     -3.89457122	      0.00000000
      0.17000000	     -9.50860660	      1.16934394	     -1.62828378	      0.03460428	      0.98507733	     -0.00014544	     11.34798272	     -0.80296363	      1.05356778	    -12.17055230	      0.46569658	     -6.79340699	    -34.06645700	     -0.13237485	      3.89307279	      0.00000000	     19.28120951	      3.73846880	      0.26757908	    -17.67256848	     -0.43219057	     -3.99250805	      0.00000000
      0.18000000	     -9.36895263	      1.11048302	     -1.70963229	      0.03575025	      0.98581571	     -0.00046151	     11.42475029	     -0.10002499	      1.46952008	    -11.28448244	     -0.49893954	     -7.33266409	    -37.37247914	     -1.55719172	      4.10459302	      0.00000000	     18.52443989	      4.62113011	      0.74695830	    -18.26799513	      0.35791585	     -3.95099123	      0.00000000
      0.19000000	     -9.17204738	      1.06430735	     -1.78489623	      0.03715262	      0.98673030	     -0.00084894	     11.33230216	      0.51007349	      1.99410569	    -10.19164595	     -1.40981311	     -8.03639992	    -40.75923052	     -3.06507816	      4.07354586	      0.00000000	     17.70294161	      5.43494817	      1.14877410	    -18.47545529	      1.02301982	     -3.78969462	      0.00000000
      0.20000000	     -9.08048326	      1.05485485	     -1.82978184	      0.03782155	      0.98757605	     -0.00148956	     11.41987199	      1.01599105	      2.13021518	     -8.90301986	     -2.27610791	     -8.27201262	    -44.43434452	     -4.40666983	      3.41717376	      0.00000000	     16.68599955	      6.02434372	      0.96006556	    -18.37846889	      1.61399789	     -3.46280069	      0.00000000
      0.21000000	     -9.02608366	      1.05653889	     -1.90676984	      0.03821046	      0.98836184	     -0.00215409	     11.49696216	      1.34069113	      2.30460946	     -7.41544298	     -2.88618325	     -8.26121469	    -48.14389824	     -5.81618401	      2.59994355	      0.00000000	     15.77933023	      6.40467252	      0.64710520	    -18.36170335	      2.24674494	     -3.06832226	      0.00000000
